<?xml version="1.0" encoding="UTF-8"?>
<svg width="15px" height="14px" viewBox="0 0 15 14" version="1.1" xmlns="http://www.w3.org/2000/svg" xmlns:xlink="http://www.w3.org/1999/xlink">
    <title>Group 2</title>
    <g id="Page-1" stroke="none" stroke-width="1" fill="none" fill-rule="evenodd">
        <g id="Group-2" transform="translate(1.695929, 0.000000)" stroke="#DA8AF1">
            <g id="Group" transform="translate(0.000000, 0.377778)">
                <path d="M3.26690301,12.2367156 C1.08896767,10.5900019 -1.11022302e-15,8.62632968 -1.11022302e-15,6.34569884 C-1.11022302e-15,4.065068 1.26786005,2.11650172 3.80358015,0.5" id="Path-4"></path>
                <path d="M3.79455528,4.5 C3.79878446,3.63618278 3.80480104,2.30284945 3.81260503,0.5" id="Path-6"></path>
                <path d="M0.120165842,0.5 L4.31016584,0.5 L0.120165842,0.5 Z" id="Path-5"></path>
            </g>
            <g id="Group" transform="translate(8.804071, 6.500000) rotate(180.000000) translate(-8.804071, -6.500000) translate(6.304071, 0.000000)">
                <path d="M3.26690301,12.2367156 C1.08896767,10.5900019 -1.11022302e-15,8.62632968 -1.11022302e-15,6.34569884 C-1.11022302e-15,4.065068 1.26786005,2.11650172 3.80358015,0.5" id="Path-4"></path>
                <path d="M3.79455528,4.5 C3.79878446,3.63618278 3.80480104,2.30284945 3.81260503,0.5" id="Path-6"></path>
                <path d="M0.120165842,0.5 L4.31016584,0.5 L0.120165842,0.5 Z" id="Path-5"></path>
            </g>
        </g>
    </g>
</svg>