<?xml version="1.0" encoding="UTF-8"?>
<svg width="15px" height="15px" viewBox="0 0 15 15" version="1.1" xmlns="http://www.w3.org/2000/svg" xmlns:xlink="http://www.w3.org/1999/xlink">
    <title>data</title>
    <g id="Page-1" stroke="none" stroke-width="1" fill="none" fill-rule="evenodd">
        <g id="data" transform="translate(1.000000, 1.932603)" stroke="#7D7D7D">
            <path d="M12.3880418,3.36451946 L12.3305523,3.48613031 C10.3788918,4.69973647 8.42723121,5.91334262 6.47557066,7.12694877 L6.14889906,7.04099428 C4.11913349,5.88511793 2.08936792,4.72924157 0.0596023465,3.57336521 L0.0686812465,3.49698467 C2.18722205,2.20598073 4.29454683,1.29100393 6.41308763,-4.4408921e-16 C8.40473902,1.12150649 10.3963904,2.24301298 12.3880418,3.36451946 Z" id="Path-3" fill="#CBCBCB"></path>
            <path d="M0.12597643,8.54221018 C2.28397127,9.68964156 4.44196611,10.837073 6.59996094,11.9845043 C8.66145229,10.8188777 10.7229436,9.65325103 12.784435,8.48762438" id="Path-2"></path>
            <path d="M-1.77635684e-15,6.12198317 C2.15799484,7.26941456 4.31598968,8.41684595 6.47398451,9.56427734 C8.53547586,8.39865068 10.5969672,7.23302403 12.6584585,6.06739738" id="Path-2"></path>
        </g>
    </g>
</svg>