<?xml version="1.0" encoding="UTF-8"?>
<svg width="16px" height="16px" viewBox="0 0 16 16" version="1.1" xmlns="http://www.w3.org/2000/svg" xmlns:xlink="http://www.w3.org/1999/xlink">
    <title>flatten</title>
    <g id="Page-1" stroke="none" stroke-width="1" fill="none" fill-rule="evenodd">
        <g id="flatten" transform="translate(1.000000, 1.000000)">
            <g id="flatten1" fill="#EBEBEB" stroke="#BDBDBD">
                <path d="M9,0 C11.7614237,0 14,2.23857625 14,5 C14,7.44852354 12.2399932,9.48597546 9.91606532,9.91627003 C9.48597546,12.2399932 7.44852354,14 5,14 C2.23857625,14 0,11.7614237 0,9 C0,6.55147646 1.7600068,4.51402454 4.08393468,4.08372997 C4.51402454,1.7600068 6.55147646,0 9,0 Z" id="Combined-Shape"></path>
            </g>
            <g id="flatten1" transform="translate(4.000000, 4.000000)" fill="#EBEBEB" stroke="#BDBDBD">
                <path d="M1,0 C3.76142375,0 6,2.23857625 6,5 C6,5.31290021 5.97125797,5.61908736 5.91627003,5.91606532 C5.61908736,5.97125797 5.31290021,6 5,6 C2.23857625,6 0,3.76142375 0,1 C0,0.686991377 0.0287619538,0.380700469 0.0837871368,0.0836259993 C0.380700469,0.0287619538 0.686991377,0 1,0 Z" id="Combined-Shape"></path>
            </g>
            <path d="M12.5479382,1.4 L12.66053,1.50912935 C13.524968,2.40789437 14.0891015,3.73507182 14.0891015,5.08055792 C14.0891015,7.52918882 12.3289403,9.56671206 10.0048611,9.99688455 C9.57507693,12.3205511 7.53762501,14.0805579 5.08910147,14.0805579 C3.92313595,14.0805579 2.85038425,13.6814621 2,13.012424 L8.72184907,5.57414477 L8.748,5.604 L12.5479382,1.4 Z" id="Combined-Shape" stroke="#66AC22" fill="#6DD400"></path>
        </g>
    </g>
</svg>