<?xml version="1.0" encoding="UTF-8"?>
<svg width="16px" height="14px" viewBox="0 0 16 14" version="1.1" xmlns="http://www.w3.org/2000/svg" xmlns:xlink="http://www.w3.org/1999/xlink">
    <title>Group 2</title>
    <g id="Page-1" stroke="none" stroke-width="1" fill="none" fill-rule="evenodd">
        <g id="Group-2" transform="translate(1.000000, 0.000000)">
            <g id="Arrow1" transform="translate(0.000000, 1.000000)">
                <polygon id="Path-9" fill="#6DD400" points="3 1 2 6 4 9 5 9 5 12 2 12 2 11 1 9 0 7 0 5 2 2"></polygon>
                <path d="M4,0 C2.66666667,1.66666667 2,3.33333333 2,5 C2,6.66666667 2.66666667,8 4,9" id="Path-10" stroke="#56A901"></path>
                <path d="M4,0 C1.33333333,2.33333333 0,4.33333333 0,6 C0,7.66666667 0.666666667,9.16666667 2,10.5" id="Path-10" stroke="#56A901"></path>
                <line x1="2.60244751" y1="10.3620148" x2="1" y2="12.1313708" id="Line-2" stroke="#56A901"></line>
                <line x1="5" y1="7.84907532" x2="3.71658521" y2="9.40625052" id="Line-2-Copy" stroke="#56A901"></line>
                <line x1="1.5" y1="12" x2="4.5" y2="12" id="Line-3" stroke="#56A901" stroke-linecap="square"></line>
                <line x1="5" y1="9" x2="5" y2="12" id="Line-3-Copy" stroke="#56A901" stroke-linecap="square"></line>
            </g>
            <g id="Arrow1-Copy" transform="translate(11.000000, 6.500000) scale(-1, -1) translate(-11.000000, -6.500000) translate(8.000000, 0.000000)">
                <polygon id="Path-9" fill="#6DD400" points="3 1 2 6 4 9 5 9 5 12 2 12 2 11 1 9 0 7 0 5 2 2"></polygon>
                <path d="M4,0 C2.66666667,1.66666667 2,3.33333333 2,5 C2,6.66666667 2.66666667,8 4,9" id="Path-10" stroke="#56A901"></path>
                <path d="M4,0 C1.33333333,2.33333333 0,4.33333333 0,6 C0,7.66666667 0.666666667,9.16666667 2,10.5" id="Path-10" stroke="#56A901"></path>
                <line x1="2.60244751" y1="10.3620148" x2="1" y2="12.1313708" id="Line-2" stroke="#56A901"></line>
                <line x1="5" y1="7.84907532" x2="3.71658521" y2="9.40625052" id="Line-2-Copy" stroke="#56A901"></line>
                <line x1="1.5" y1="12" x2="4.5" y2="12" id="Line-3" stroke="#56A901" stroke-linecap="square"></line>
                <line x1="5" y1="9" x2="5" y2="12" id="Line-3-Copy" stroke="#56A901" stroke-linecap="square"></line>
            </g>
        </g>
    </g>
</svg>