<?xml version="1.0" encoding="UTF-8"?>
<svg width="19px" height="15px" viewBox="0 0 19 15" version="1.1" xmlns="http://www.w3.org/2000/svg" xmlns:xlink="http://www.w3.org/1999/xlink">
    <title>show_grid</title>
    <g id="Page-1" stroke="none" stroke-width="1" fill="none" fill-rule="evenodd">
        <g id="show_grid" transform="translate(0.519573, 0.543581)">
            <rect id="Rectangle" stroke="#B5B5B5" stroke-linejoin="bevel" x="1.48042727" y="1.45641883" width="16" height="12"></rect>
            <path d="M5.50267169,1 C5.50762142,5.20347053 5.49772195,9.71079979 5.50267169,13.9142703 L5.50267169,1 Z" id="Path" stroke="#F3ABB2"></path>
            <path d="M1,5.48051901 C6.38903437,5.41339078 12.569847,5.54764723 17.9588813,5.48051901 L1,5.48051901 Z" id="Path-2" stroke="#F3ABB2"></path>
            <path d="M1,9.44238503 C6.18437713,9.29814729 12.7745042,9.58662276 17.9588813,9.44238503 L1,9.44238503 Z" id="Path-3" stroke="#F3ABB2"></path>
            <path d="M9.44851055,1 C9.55139141,5.09981244 9.34562969,9.81445788 9.44851055,13.9142703 L9.44851055,1 Z" id="Path-4" stroke="#F3ABB2"></path>
            <path d="M13.4514759,1 C13.4645661,5.08234519 13.4383857,9.83192513 13.4514759,13.9142703 L13.4514759,1 Z" id="Path-5" stroke="#F3ABB2"></path>
            <path d="M9.48184968,0.974286876 C9.48184968,0.974286876 9.48184968,1.62412818 9.48184968,1.94795021 C9.48184968,1.29884132 9.48184968,0.974286876 9.48184968,0.974286876 Z" id="Path-7" stroke="#AB787E"></path>
            <path d="M9.48184968,12.9695872 C9.48184968,12.9695872 9.48184968,13.6194285 9.48184968,13.9432505 C9.48184968,13.2941416 9.48184968,12.9695872 9.48184968,12.9695872 Z" id="Path-7" stroke="#AB787E"></path>
            <path d="M5.48042727,0.969587169 C5.48042727,0.969587169 5.48042727,1.61942848 5.48042727,1.9432505 C5.48042727,1.29414161 5.48042727,0.969587169 5.48042727,0.969587169 Z" id="Path-7-Copy" stroke="#AB787E"></path>
            <path d="M5.48042727,12.9695872 C5.48042727,12.9695872 5.48042727,13.6194285 5.48042727,13.9432505 C5.48042727,13.2941416 5.48042727,12.9695872 5.48042727,12.9695872 Z" id="Path-7-Copy" stroke="#AB787E"></path>
            <path d="M13.4804273,12.9695872 C13.4804273,12.9695872 13.4804273,13.6194285 13.4804273,13.9432505 C13.4804273,13.2941416 13.4804273,12.9695872 13.4804273,12.9695872 Z" id="Path-7-Copy-2" stroke="#AB787E"></path>
            <path d="M13.4804273,0.969587169 C13.4804273,0.969587169 13.4804273,1.61942848 13.4804273,1.9432505 C13.4804273,1.29414161 13.4804273,0.969587169 13.4804273,0.969587169 Z" id="Path-7-Copy-2" stroke="#AB787E"></path>
            <path d="M17.4804273,4.96958717 C17.4804273,4.96958717 17.4804273,5.61942848 17.4804273,5.9432505 C17.4804273,5.29414161 17.4804273,4.96958717 17.4804273,4.96958717 Z" id="Path-7-Copy-2" stroke="#AB787E"></path>
            <path d="M17.4804273,8.96958717 C17.4804273,8.96958717 17.4804273,9.61942848 17.4804273,9.9432505 C17.4804273,9.29414161 17.4804273,8.96958717 17.4804273,8.96958717 Z" id="Path-7-Copy-2" stroke="#AB787E"></path>
            <path d="M1.48042727,8.96958717 C1.48042727,8.96958717 1.48042727,9.61942848 1.48042727,9.9432505 C1.48042727,9.29414161 1.48042727,8.96958717 1.48042727,8.96958717 Z" id="Path-7-Copy-2" stroke="#AB787E"></path>
            <path d="M1.48042727,4.96958717 C1.48042727,4.96958717 1.48042727,5.61942848 1.48042727,5.9432505 C1.48042727,5.29414161 1.48042727,4.96958717 1.48042727,4.96958717 Z" id="Path-7-Copy-2" stroke="#AB787E"></path>
        </g>
    </g>
</svg>