<?xml version="1.0" encoding="UTF-8"?>
<svg width="18px" height="15px" viewBox="0 0 18 15" version="1.1" xmlns="http://www.w3.org/2000/svg" xmlns:xlink="http://www.w3.org/1999/xlink">
    <title>show_layout</title>
    <g id="Page-1" stroke="none" stroke-width="1" fill="none" fill-rule="evenodd">
        <g id="show_layout" transform="translate(1.000000, 0.500000)">
            <rect id="Rectangle" stroke="#B5B5B5" stroke-linejoin="bevel" x="0.480427265" y="1.45641883" width="16" height="12"></rect>
            <path d="M4.50267169,1 C4.50762142,5.20347053 4.49772195,9.71079979 4.50267169,13.9142703 L4.50267169,1 Z" id="Path" stroke="#F3ABB2" stroke-width="3"></path>
            <path d="M8.44851055,1 C8.55139141,5.09981244 8.34562969,9.81445788 8.44851055,13.9142703 L8.44851055,1 Z" id="Path-4" stroke="#F3ABB2" stroke-width="3"></path>
            <path d="M12.4514759,1 C12.4645661,5.08234519 12.4383857,9.83192513 12.4514759,13.9142703 L12.4514759,1 Z" id="Path-5" stroke="#F3ABB2" stroke-width="3"></path>
            <path d="M8.48184968,0.974286876 C8.48184968,0.974286876 8.48184968,1.62412818 8.48184968,1.94795021 C8.48184968,1.29884132 8.48184968,0.974286876 8.48184968,0.974286876 Z" id="Path-7" stroke="#AB787E" stroke-width="3"></path>
            <path d="M8.48184968,12.9695872 C8.48184968,12.9695872 8.48184968,13.6194285 8.48184968,13.9432505 C8.48184968,13.2941416 8.48184968,12.9695872 8.48184968,12.9695872 Z" id="Path-7" stroke="#AB787E" stroke-width="3"></path>
            <path d="M4.48042727,0.969587169 C4.48042727,0.969587169 4.48042727,1.61942848 4.48042727,1.9432505 C4.48042727,1.29414161 4.48042727,0.969587169 4.48042727,0.969587169 Z" id="Path-7-Copy" stroke="#AB787E" stroke-width="3"></path>
            <path d="M4.48042727,12.9695872 C4.48042727,12.9695872 4.48042727,13.6194285 4.48042727,13.9432505 C4.48042727,13.2941416 4.48042727,12.9695872 4.48042727,12.9695872 Z" id="Path-7-Copy" stroke="#AB787E" stroke-width="3"></path>
            <path d="M12.4804273,12.9695872 C12.4804273,12.9695872 12.4804273,13.6194285 12.4804273,13.9432505 C12.4804273,13.2941416 12.4804273,12.9695872 12.4804273,12.9695872 Z" id="Path-7-Copy-2" stroke="#AB787E" stroke-width="3"></path>
            <path d="M12.4804273,0.969587169 C12.4804273,0.969587169 12.4804273,1.61942848 12.4804273,1.9432505 C12.4804273,1.29414161 12.4804273,0.969587169 12.4804273,0.969587169 Z" id="Path-7-Copy-2" stroke="#AB787E" stroke-width="3"></path>
        </g>
    </g>
</svg>