<?xml version="1.0" encoding="UTF-8"?>
<svg width="15px" height="16px" viewBox="0 0 15 16" version="1.1" xmlns="http://www.w3.org/2000/svg" xmlns:xlink="http://www.w3.org/1999/xlink">
    <title>ungroup</title>
    <g id="Page-1" stroke="none" stroke-width="1" fill="none" fill-rule="evenodd" stroke-linejoin="bevel">
        <g id="ungroup" transform="translate(0.000000, 1.000000)">
            <rect id="Rectangle-Copy-2" stroke="#A6A6A6" fill="#FFFFFF" x="6.5" y="6" width="7" height="7"></rect>
            <rect id="Rectangle" stroke="#289DCB" fill="#33C5FE" x="1.5" y="1" width="7" height="7"></rect>
            <path d="M7.5,12 L7.5,14 L5.5,14 L5.5,12 L7.5,12 Z M14.5,12 L14.5,14 L12.5,14 L12.5,12 L14.5,12 Z M2.5,7 L2.5,9 L0.5,9 L0.5,7 L2.5,7 Z M14.5,5 L14.5,7 L12.5,7 L12.5,5 L14.5,5 Z M9.5,0 L9.5,2 L7.5,2 L7.5,0 L9.5,0 Z" id="Rectangle-Copy-6" stroke="#7E7F80" fill="#FFFFFF"></path>
            <rect id="Rectangle-Copy-4" stroke="#7E7F80" fill="#FFFFFF" x="7.5" y="7" width="2" height="2"></rect>
            <rect id="Rectangle" stroke="#7E7F80" fill="#FFFFFF" x="0.5" y="0" width="2" height="2"></rect>
        </g>
    </g>
</svg>